<?xml version="1.0" encoding="UTF-8"?>
<svg width="165px" height="165px" viewBox="0 0 165 165" version="1.1" xmlns="http://www.w3.org/2000/svg" xmlns:xlink="http://www.w3.org/1999/xlink">
    <!-- Generator: Sketch 52.3 (67297) - http://www.bohemiancoding.com/sketch -->
    <title>分组 8</title>
    <desc>Created with Sketch.</desc>
    <defs>
        <rect id="path-1" x="0" y="0" width="165" height="165" rx="5"></rect>
    </defs>
    <g id="Page-1" stroke="none" stroke-width="1" fill="none" fill-rule="evenodd">
        <g id="首页-copy-2" transform="translate(-195.000000, -439.000000)">
            <g id="分组" transform="translate(15.000000, 400.000000)">
                <g id="分组-3" transform="translate(180.000000, 39.000000)">
                    <g id="分组-8">
                        <mask id="mask-2" fill="white">
                            <use xlink:href="#path-1"></use>
                        </mask>
                        <use id="矩形-copy-3" fill="#F6F6F6" fill-rule="nonzero" xlink:href="#path-1"></use>
                        <g id="分组-6" mask="url(#mask-2)">
                            <g transform="translate(82.500000, 83.000000) rotate(6.000000) translate(-82.500000, -83.000000) translate(50.000000, 55.000000)" id="图片">
                                <g transform="translate(20.500037, 28.721368) rotate(-3.000000) translate(-20.500037, -28.721368) translate(2.000037, 2.721368)">
                                    <path d="M29.4214904,1.96494288 L26.6284078,10.9649429 L30.6628605,18.932474 L27.8158393,22.9649429 L26.8450454,27.7713244 L19.4828315,20.6319287 L11.2329796,28.6328195 L11.2329796,41.9654551 L27.6988775,41.9654551 L31.0434189,49.9649429 L5.73277987,49.9649429 C4.21397494,49.9649429 2.9828522,48.7721312 2.9828522,47.2998721 L2.9828522,4.63215142 C2.9828522,3.15909072 4.21397494,1.96494288 5.73277987,1.96494288 L29.4214904,1.96494288 Z" id="合并形状" fill="#ECECEC" fill-rule="nonzero" transform="translate(18.733353, 25.964943) rotate(-5.000000) translate(-18.733353, -25.964943) "></path>
                                </g>
                                <g transform="translate(44.930835, 25.976909) rotate(-356.000000) translate(-44.930835, -25.976909) translate(28.930835, 0.476909)">
                                    <path d="M5.84002937,1.58788508 L26.7984626,1.58788508 L26.7983938,1.58788508 C28.3171987,1.58788508 29.5484592,2.78203292 29.5484592,4.25516042 L29.5484592,46.9228143 C29.5484592,48.3950733 28.3172676,49.5878851 26.7983938,49.5878851 L7.05722371,49.5878851 L4.54727535,41.5883973 L21.2981251,41.5883973 L21.2981251,33.5889094 L13.0482043,25.5874842 L4.79862798,33.5889094 L3.20219504,32.0407927 L4.63505061,22.5878851 L6.77162937,18.5554162 L3.74392938,10.5878851 L5.84002937,1.58788508 Z M15.7982009,20.2550045 C18.8358107,20.2550045 21.2981251,17.8675105 21.2981251,14.9219236 C21.2981251,11.9752678 18.8357418,9.5885754 15.7982009,9.5885754 C12.7606599,9.5885754 10.2985522,11.9752009 10.2985522,14.9219236 C10.2985522,17.8675105 12.760591,20.2550045 15.7982009,20.2550045 Z" id="合并形状" fill="#ECECEC" fill-rule="nonzero" transform="translate(16.375327, 25.587885) rotate(-6.000000) translate(-16.375327, -25.587885) "></path>
                                </g>
                            </g>
                        </g>
                    </g>
                </g>
            </g>
        </g>
    </g>
</svg>